<svg width="34" height="34" viewBox="0 0 34 34" fill="none" xmlns="http://www.w3.org/2000/svg">
<path d="M24.05 9.91006C23.1332 8.98399 22.0412 8.24973 20.8376 7.75011C19.6341 7.25049 18.3431 6.99552 17.04 7.00006C11.58 7.00006 7.12999 11.4501 7.12999 16.9101C7.12999 18.6601 7.58999 20.3601 8.44999 21.8601L7.04999 27.0001L12.3 25.6201C13.75 26.4101 15.38 26.8301 17.04 26.8301C22.5 26.8301 26.95 22.3801 26.95 16.9201C26.95 14.2701 25.92 11.7801 24.05 9.91006ZM17.04 25.1501C15.56 25.1501 14.11 24.7501 12.84 24.0001L12.54 23.8201L9.41999 24.6401L10.25 21.6001L10.05 21.2901C9.22773 19.977 8.79113 18.4593 8.78999 16.9101C8.78999 12.3701 12.49 8.67006 17.03 8.67006C19.23 8.67006 21.3 9.53006 22.85 11.0901C23.6175 11.854 24.2257 12.7627 24.6394 13.7635C25.0531 14.7642 25.264 15.8372 25.26 16.9201C25.28 21.4601 21.58 25.1501 17.04 25.1501ZM21.56 18.9901C21.31 18.8701 20.09 18.2701 19.87 18.1801C19.64 18.1001 19.48 18.0601 19.31 18.3001C19.14 18.5501 18.67 19.1101 18.53 19.2701C18.39 19.4401 18.24 19.4601 17.99 19.3301C17.74 19.2101 16.94 18.9401 16 18.1001C15.26 17.4401 14.77 16.6301 14.62 16.3801C14.48 16.1301 14.6 16.0001 14.73 15.8701C14.84 15.7601 14.98 15.5801 15.1 15.4401C15.22 15.3001 15.27 15.1901 15.35 15.0301C15.43 14.8601 15.39 14.7201 15.33 14.6001C15.27 14.4801 14.77 13.2601 14.57 12.7601C14.37 12.2801 14.16 12.3401 14.01 12.3301H13.53C13.36 12.3301 13.1 12.3901 12.87 12.6401C12.65 12.8901 12.01 13.4901 12.01 14.7101C12.01 15.9301 12.9 17.1101 13.02 17.2701C13.14 17.4401 14.77 19.9401 17.25 21.0101C17.84 21.2701 18.3 21.4201 18.66 21.5301C19.25 21.7201 19.79 21.6901 20.22 21.6301C20.7 21.5601 21.69 21.0301 21.89 20.4501C22.1 19.8701 22.1 19.3801 22.03 19.2701C21.96 19.1601 21.81 19.1101 21.56 18.9901Z" fill="white"/>
</svg>
